<svg width="1200" height="630" viewBox="0 0 1200 630" fill="none" xmlns="http://www.w3.org/2000/svg">
  <defs>
    <linearGradient id="bg" x1="0" y1="0" x2="1200" y2="630" gradientUnits="userSpaceOnUse">
      <stop offset="0" stop-color="#0f172a" />
      <stop offset="1" stop-color="#1e293b" />
    </linearGradient>
    <linearGradient id="card" x1="198" y1="130" x2="936" y2="495" gradientUnits="userSpaceOnUse">
      <stop offset="0" stop-color="#1f2937" />
      <stop offset="1" stop-color="#334155" />
    </linearGradient>
  </defs>

  <rect width="1200" height="630" fill="url(#bg)" />

  <circle cx="1050" cy="130" r="190" fill="#0ea5e9" fill-opacity="0.12" />
  <circle cx="140" cy="520" r="160" fill="#22c55e" fill-opacity="0.12" />

  <rect x="180" y="110" width="840" height="410" rx="28" fill="url(#card)" stroke="#475569" stroke-width="2" />

  <rect x="245" y="178" width="70" height="70" rx="18" fill="#f8fafc" />
  <path d="M280 197C269 197 260 206 260 217C260 231 276 246 280 249C284 246 300 231 300 217C300 206 291 197 280 197Z" fill="#0f172a"/>
  <path d="M280 224C284.418 224 288 220.418 288 216C288 211.582 284.418 208 280 208C275.582 208 272 211.582 272 216C272 220.418 275.582 224 280 224Z" fill="#f8fafc"/>

  <text x="345" y="223" fill="#f8fafc" font-family="Segoe UI, Arial, sans-serif" font-size="58" font-weight="700">Medicare</text>

  <text x="245" y="304" fill="#e2e8f0" font-family="Segoe UI, Arial, sans-serif" font-size="44" font-weight="600">
    Secure Healthcare Portal
  </text>
  <text x="245" y="356" fill="#94a3b8" font-family="Segoe UI, Arial, sans-serif" font-size="30">
    Patient dashboard, discharge records, and support in one place.
  </text>

  <rect x="245" y="404" width="260" height="58" rx="29" fill="#16a34a" />
  <text x="375" y="441" text-anchor="middle" fill="#f8fafc" font-family="Segoe UI, Arial, sans-serif" font-size="24" font-weight="700">
    Trusted Care Access
  </text>
</svg>
